<?xml version="1.0" standalone="no"?>
<!DOCTYPE svg PUBLIC "-//W3C//DTD SVG 20010904//EN"
 "http://www.w3.org/TR/2001/REC-SVG-20010904/DTD/svg10.dtd">
<svg version="1.0" xmlns="http://www.w3.org/2000/svg"
 width="53.000000pt" height="53.000000pt" viewBox="0 0 53.000000 53.000000"
 preserveAspectRatio="xMidYMid meet">
<metadata>
Created by potrace 1.16, written by Peter Selinger 2001-2019
</metadata>
<g transform="translate(0.000000,53.000000) scale(0.100000,-0.100000)"
fill="#000000" stroke="none">
<path d="M176 433 c-3 -4 -6 -17 -6 -30 0 -15 -8 -27 -22 -33 l-23 -9 23 0
c34 -1 26 -21 -8 -21 -16 0 -30 -4 -30 -10 0 -5 11 -10 24 -10 36 0 39 -26 6
-59 -17 -16 -30 -40 -30 -53 1 -21 2 -20 14 7 20 44 45 62 99 68 l47 5 0 -44
0 -44 43 0 c50 0 67 13 66 50 -1 20 -2 21 -6 5 -8 -32 -24 -45 -54 -45 -21 0
-29 5 -29 18 -1 44 -12 188 -15 198 -4 12 -88 18 -99 7z"/>
<path d="M400 342 c0 -4 5 -24 9 -46 8 -33 6 -44 -15 -77 -23 -38 -26 -39 -79
-39 -41 0 -55 4 -55 14 0 18 -38 46 -63 46 -10 0 -33 -15 -52 -34 -33 -33 -33
-35 -12 -38 27 -4 35 -35 10 -41 -10 -3 3 -5 29 -6 38 -1 50 3 65 23 15 21 28
25 90 28 67 3 72 2 76 -19 4 -20 0 -22 -52 -26 -49 -3 -46 -3 21 -5 42 -1 83
1 92 4 9 3 21 24 26 46 9 32 8 44 -5 64 -8 13 -24 24 -35 24 -22 0 -26 20 -9
37 16 16 5 39 -20 46 -12 3 -21 2 -21 -1z"/>
</g>
</svg>
